<svg width="71" height="71" viewBox="0 0 71 71" fill="none" xmlns="http://www.w3.org/2000/svg">
<path d="M39.3203 7.82901C39.1023 7.79277 38.8495 7.76119 38.5619 7.73428C38.269 7.71259 37.9678 7.69874 37.6586 7.69274C37.3439 7.69197 37.045 7.69684 36.7621 7.70735C36.4738 7.7231 36.2307 7.74505 36.0328 7.77322L36.0447 7.12533C36.2584 7.10813 36.5094 7.09433 36.7976 7.08392C37.0804 7.07874 37.3765 7.07915 37.6857 7.08516C37.9897 7.09105 38.2855 7.10213 38.5733 7.11838C38.8609 7.13997 39.1139 7.16354 39.3321 7.18912L39.3203 7.82901ZM39.0683 4.5675C39.1082 4.42425 39.14 4.29418 39.1634 4.17728C39.1869 4.06038 39.1997 3.94594 39.2018 3.83396C39.2034 3.74331 39.1864 3.65229 39.1508 3.56092C39.1097 3.47477 39.0418 3.3961 38.9471 3.32492C38.8469 3.25897 38.7093 3.20295 38.5341 3.15688C38.3588 3.11614 38.1352 3.09313 37.8633 3.08785C37.5007 3.08081 37.1591 3.09019 36.8386 3.11597C36.5179 3.14709 36.197 3.19421 35.8758 3.25732L35.8722 2.58513C36.1238 2.53666 36.4178 2.4997 36.7543 2.47422C37.0854 2.45397 37.459 2.44788 37.8749 2.45596C38.5467 2.46899 39.038 2.58521 39.3487 2.80461C39.6541 3.02391 39.8033 3.3202 39.7964 3.69347C39.794 3.82678 39.7807 3.96788 39.7567 4.11678C39.7272 4.2709 39.6893 4.44353 39.6431 4.63467L39.0683 4.5675ZM40.8367 8.47455C40.8482 8.4321 40.8652 8.37642 40.8878 8.30751C40.905 8.24383 40.9249 8.17754 40.9475 8.10863C40.9646 8.04495 40.979 7.98922 40.9905 7.94143C41.02 7.79264 41.0551 7.61996 41.0961 7.42338C41.1369 7.23214 41.1781 7.0249 41.2195 6.80166C41.2556 6.58365 41.2917 6.36031 41.3279 6.13164C41.3587 5.90819 41.3867 5.69003 41.4119 5.47714C41.4318 5.26416 41.4435 5.06701 41.4468 4.88571C41.4504 4.68841 41.4485 4.50167 41.4411 4.32549C41.4283 4.14921 41.4131 3.96222 41.3954 3.7645C41.3452 3.88622 41.2921 4.01588 41.2362 4.15349C41.1804 4.2911 41.1245 4.42604 41.0688 4.55831C41.0076 4.69582 40.9546 4.81748 40.91 4.9233L40.5788 4.66083C40.6516 4.47021 40.7302 4.26102 40.8144 4.03328C40.8986 3.80554 40.9746 3.58564 41.0425 3.37358C41.105 3.16676 41.1507 3.00228 41.1796 2.88015C41.1914 2.8217 41.2032 2.75792 41.2152 2.6888C41.2271 2.61969 41.2308 2.56375 41.2262 2.52099C41.2217 2.47822 41.2199 2.43285 41.2207 2.38486C41.2164 2.33143 41.2119 2.28333 41.2074 2.24057L41.784 2.21175C41.8588 2.49592 41.9215 2.85987 41.972 3.3036C42.0224 3.75266 42.0427 4.24648 42.0328 4.78506C42.0274 5.07834 42.0085 5.3767 41.9763 5.68013C41.9439 5.9889 41.9038 6.28684 41.8558 6.57396C41.8078 6.86642 41.7629 7.13226 41.7212 7.3715C41.674 7.61596 41.6382 7.82064 41.6138 7.98553C41.5961 8.08121 41.581 8.17693 41.5686 8.27271C41.556 8.37382 41.549 8.46703 41.5474 8.55235L40.8367 8.47455Z" fill="#565050"/>
<path d="M30.1746 8.72337C30.2091 8.61754 30.2385 8.50625 30.2626 8.38949C30.2867 8.27273 30.3108 8.1613 30.3347 8.05521C30.3644 7.92792 30.4002 7.76878 30.4422 7.57778C30.4786 7.39198 30.5262 7.18779 30.5849 6.9652C30.6381 6.74782 30.6941 6.52783 30.7528 6.30525C30.8115 6.08266 30.8726 5.87081 30.9361 5.66969C30.9942 5.47376 31.0543 5.3019 31.1166 5.1541C30.7588 5.39044 30.3974 5.55467 30.0324 5.64678C29.662 5.74409 29.2661 5.7874 28.845 5.77672C28.4184 5.76591 28.0575 5.69007 27.7621 5.5492C27.4667 5.40834 27.242 5.21591 27.0878 4.97193C26.9335 4.73327 26.8601 4.45666 26.8676 4.14208C26.8776 3.7262 26.9874 3.37687 27.1969 3.09409C27.4064 2.81131 27.6971 2.59194 28.069 2.43598C28.4408 2.28003 28.8805 2.18714 29.388 2.15733C29.8904 2.12205 30.4473 2.14417 31.0589 2.2237L31.2037 2.85957C30.7414 2.78383 30.2942 2.74582 29.862 2.74553C29.4245 2.75044 29.0339 2.79922 28.6902 2.89188C28.3411 2.98973 28.0627 3.14005 27.8551 3.34286C27.6422 3.54552 27.5318 3.81214 27.5238 4.14271C27.5166 4.44129 27.6332 4.695 27.8736 4.90382C28.1086 5.11785 28.4606 5.23081 28.9298 5.2427C29.4043 5.25473 29.8515 5.18338 30.2713 5.02863C30.691 4.87922 31.038 4.64794 31.3123 4.3348C31.3617 4.27736 31.4084 4.21986 31.4525 4.16229C31.4911 4.10992 31.5299 4.04689 31.5691 3.97319L32.1637 4.20433C32.0019 4.49899 31.8526 4.82865 31.7158 5.1933C31.5789 5.56328 31.4579 5.93633 31.3528 6.31246C31.2477 6.68858 31.1594 7.03312 31.0879 7.34607C31.0162 7.66436 30.9647 7.9218 30.9333 8.1184C30.9142 8.24596 30.9008 8.36032 30.8931 8.46149C30.8853 8.56266 30.8827 8.6693 30.8854 8.7814L30.1746 8.72337ZM32.6862 7.77072C32.4738 7.72799 32.2293 7.68978 31.9527 7.65609C31.6708 7.62227 31.4098 7.60232 31.1699 7.59623C30.914 7.58974 30.6286 7.59051 30.3136 7.59853C29.9987 7.60655 29.6702 7.62223 29.3282 7.64557C28.9862 7.66891 28.644 7.70025 28.3016 7.73958C27.9538 7.78411 27.6218 7.83705 27.3055 7.89839L27.3123 7.28236C27.5961 7.24154 27.9064 7.20406 28.2433 7.16992C28.5749 7.13565 28.9144 7.10691 29.2617 7.0837C29.609 7.0605 29.9482 7.04242 30.2793 7.02948C30.6049 7.02173 30.9037 7.0213 31.1756 7.02819C31.4475 7.03509 31.7112 7.04978 31.9667 7.07226C32.2169 7.09461 32.4591 7.11942 32.6932 7.1467L32.6862 7.77072Z" fill="#565050"/>
<path d="M22.6206 9.99119C22.3987 10.0514 22.1835 10.1148 21.9752 10.1814C21.7668 10.248 21.5502 10.3233 21.3254 10.4074C20.8759 10.5756 20.435 10.7604 20.0029 10.9619C19.5708 11.1634 19.1783 11.3729 18.8254 11.5903L18.6196 11.0097C18.996 10.7949 19.4012 10.5892 19.8351 10.3928C20.264 10.1981 20.6998 10.0152 21.1426 9.84382C21.3574 9.76346 21.569 9.69 21.7774 9.62343C21.9807 9.55874 22.195 9.49282 22.4201 9.42567L22.6206 9.99119ZM20.4766 12.322C20.4598 12.2428 20.4431 12.1637 20.4264 12.0846C20.4046 12.0073 20.3829 11.93 20.3612 11.8527C20.3341 11.7604 20.2981 11.6429 20.2532 11.5003C20.2083 11.3577 20.1573 11.2059 20.1003 11.0451C20.045 10.8892 19.9907 10.7359 19.9372 10.5851C19.8357 10.2986 19.7291 10.0139 19.6175 9.73115C19.5059 9.44836 19.3946 9.17404 19.2833 8.9082C19.1721 8.64236 19.0688 8.39066 18.9732 8.15311C18.8745 7.92246 18.7904 7.70911 18.7209 7.51307C18.6674 7.36226 18.6373 7.20556 18.6306 7.04297C18.6189 6.88224 18.6425 6.72538 18.7014 6.57239C18.7553 6.42126 18.8556 6.28126 19.0023 6.15237C19.1422 6.02033 19.337 5.90759 19.5868 5.81415C20.0913 5.62541 20.5123 5.57609 20.8497 5.6662C21.1822 5.75817 21.4081 5.97256 21.5275 6.30935C21.6024 6.52048 21.6101 6.73392 21.5508 6.94968C21.4883 7.17234 21.3625 7.37598 21.1734 7.56061C20.9792 7.74711 20.7173 7.90203 20.3876 8.02537C20.0679 8.14497 19.7623 8.21659 19.4709 8.24023C19.1762 8.27077 18.8951 8.26776 18.6275 8.23121C18.3567 8.20156 18.1006 8.14935 17.8591 8.07458C17.6194 8.00484 17.3947 7.9295 17.1849 7.84855L17.3355 7.22002C17.6844 7.37418 18.0241 7.49474 18.3548 7.58169C18.6805 7.6705 19.0019 7.71537 19.3191 7.71628C19.6362 7.7172 19.9522 7.65879 20.2669 7.54105C20.5516 7.43454 20.7634 7.28983 20.9022 7.10694C21.0378 6.93094 21.0736 6.75246 21.0094 6.5715C20.9417 6.38048 20.8042 6.26396 20.5969 6.22193C20.3915 6.18493 20.1539 6.21689 19.8841 6.3178C19.6693 6.39816 19.517 6.49502 19.427 6.60837C19.3321 6.7236 19.2835 6.84994 19.2813 6.9874C19.2741 7.12673 19.3 7.27934 19.3588 7.44523C19.4069 7.58095 19.4769 7.76256 19.5689 7.99005C19.6608 8.21755 19.7624 8.46422 19.8737 8.73006C19.9867 9.00093 20.0989 9.27776 20.2105 9.56055C20.3221 9.84334 20.4224 10.1104 20.5115 10.3617C20.6024 10.6181 20.6879 10.8594 20.7681 11.0856C20.8483 11.3118 20.9116 11.4903 20.9579 11.621C20.9811 11.6863 21.0103 11.7608 21.0456 11.8444C21.0827 11.933 21.1178 12.0081 21.1509 12.0697L20.4766 12.322ZM24.162 10.892C24.1627 10.8462 24.1615 10.7869 24.1583 10.714C24.1519 10.6481 24.1446 10.5797 24.1364 10.5087C24.1233 10.4396 24.1137 10.3806 24.1076 10.3316C24.0877 10.1796 24.0605 9.9991 24.0259 9.78997C23.9882 9.58774 23.9467 9.36698 23.9015 9.12769C23.858 8.89343 23.8103 8.65508 23.7583 8.41264C23.7031 8.17709 23.6455 7.95094 23.5857 7.73421C23.5258 7.51748 23.4656 7.32366 23.405 7.15275C23.3409 6.97178 23.2744 6.80023 23.2056 6.63808C23.1318 6.4778 23.0494 6.30934 22.9585 6.13269C22.9595 6.26326 22.9582 6.40323 22.9546 6.55262C22.951 6.702 22.9474 6.85139 22.9438 7.00077C22.9352 7.15202 22.9287 7.28539 22.9244 7.40088L22.5316 7.27452C22.531 7.08118 22.5298 6.86242 22.5281 6.61824C22.5232 6.38095 22.5185 6.15214 22.5139 5.9318C22.5061 5.71836 22.4924 5.54413 22.4729 5.40911C22.465 5.35511 22.4545 5.29356 22.4414 5.22448C22.4232 5.15726 22.4036 5.10196 22.3826 5.05859C22.3701 5.0234 22.3549 4.98068 22.3371 4.93041C22.3143 4.88201 22.2933 4.83864 22.274 4.80029L22.7851 4.56637C22.9563 4.80979 23.1431 5.12135 23.3456 5.50107C23.5449 5.88769 23.7346 6.33485 23.9146 6.84256C24.0144 7.12406 24.1052 7.42028 24.1872 7.73124C24.2659 8.04908 24.3395 8.36033 24.4079 8.66496C24.4713 8.97147 24.5282 9.2519 24.5788 9.50627C24.6262 9.76753 24.665 9.98075 24.6953 10.1459C24.7156 10.2351 24.7376 10.3293 24.7615 10.4286C24.7854 10.5278 24.8116 10.6177 24.8401 10.6981L24.162 10.892Z" fill="#565050"/>
<path d="M13.2235 16.0351C13.0655 16.2019 12.9149 16.3679 12.7717 16.5332C12.6285 16.6984 12.4828 16.8754 12.3346 17.0642C12.0383 17.4419 11.758 17.8293 11.4938 18.2265C11.2295 18.6238 11.0031 19.0073 10.8145 19.3772L10.34 18.9844C10.55 18.6045 10.7892 18.2176 11.0576 17.8238C11.3226 17.4341 11.5996 17.0509 11.8885 16.6741C12.0301 16.4937 12.1725 16.3208 12.3157 16.1556C12.4556 15.9946 12.6041 15.8268 12.7613 15.6524L13.2235 16.0351ZM12.598 19.1512C12.5429 19.0918 12.4879 19.0324 12.4329 18.973C12.3745 18.9178 12.3162 18.8625 12.2579 18.8073C12.1872 18.7419 12.096 18.6595 11.9843 18.56C11.8726 18.4606 11.751 18.3565 11.6195 18.2476C11.4922 18.1422 11.3669 18.0384 11.2437 17.9364C11.0095 17.7425 10.7721 17.5528 10.5314 17.3673C10.2906 17.1818 10.0544 17.0035 9.8227 16.8324C9.591 16.6613 9.37327 16.4984 9.16951 16.3435C8.96656 16.1962 8.78498 16.0562 8.62478 15.9236C8.50154 15.8215 8.39517 15.7023 8.30568 15.5659C8.21289 15.4337 8.15217 15.2865 8.12354 15.1244C8.09161 14.9664 8.10492 14.794 8.16345 14.6071C8.21459 14.421 8.32246 14.2231 8.48708 14.0133C8.8196 13.5895 9.15281 13.329 9.48669 13.2317C9.81728 13.1385 10.1202 13.2059 10.3954 13.4338C10.5679 13.5767 10.6845 13.7563 10.7452 13.9726C10.8067 14.1966 10.8044 14.437 10.7384 14.6938C10.6691 14.9548 10.5258 15.2238 10.3085 15.5008C10.0978 15.7693 9.87441 15.9892 9.6383 16.1606C9.403 16.3396 9.16199 16.4826 8.91524 16.5898C8.66932 16.7046 8.42424 16.7924 8.18 16.8532C7.93987 16.9174 7.70962 16.969 7.48925 17.008L7.2937 16.3892C7.67029 16.3411 8.02183 16.2688 8.34831 16.1723C8.6715 16.0799 8.96842 15.952 9.23905 15.7885C9.50968 15.6249 9.74871 15.411 9.95612 15.1467C10.1438 14.9075 10.2496 14.6733 10.2737 14.444C10.2985 14.2223 10.237 14.0502 10.0891 13.9278C9.93304 13.7985 9.75589 13.7695 9.55769 13.8407C9.36359 13.9154 9.17765 14.066 8.99987 14.2925C8.8583 14.473 8.77841 14.6352 8.76019 14.7794C8.73869 14.9277 8.76242 15.0615 8.83137 15.1809C8.89704 15.3045 8.99765 15.4225 9.13321 15.5347C9.24412 15.6265 9.39735 15.7465 9.5929 15.8946C9.78845 16.0427 10.0021 16.2022 10.2338 16.3733C10.4696 16.5478 10.7079 16.7278 10.9486 16.9133C11.1893 17.0988 11.4124 17.2766 11.6178 17.4467C11.8273 17.6201 12.0245 17.7834 12.2093 17.9365C12.3942 18.0895 12.54 18.2103 12.6468 18.2987C12.7002 18.3429 12.7635 18.3919 12.8366 18.4455C12.9138 18.5025 12.9824 18.5489 13.0424 18.5848L12.598 19.1512ZM15.0006 16.0115C14.9776 15.9717 14.946 15.9213 14.9058 15.8603C14.8663 15.8069 14.8249 15.7518 14.7813 15.695C14.7345 15.6423 14.6959 15.5965 14.6655 15.5575C14.5703 15.4371 14.4541 15.2959 14.3169 15.1339C14.1805 14.9794 14.0315 14.811 13.8697 14.6286C13.712 14.4495 13.5485 14.2692 13.3793 14.0875C13.2109 13.9135 13.0454 13.7488 12.8827 13.5933C12.7201 13.4379 12.5689 13.3023 12.4293 13.1867C12.2814 13.0642 12.1364 12.9511 11.9942 12.8472C11.8488 12.7475 11.6918 12.6453 11.5234 12.5404C11.5915 12.6522 11.6625 12.7733 11.7364 12.9037C11.8103 13.0341 11.8842 13.1645 11.9581 13.2949C12.0286 13.4295 12.0919 13.5476 12.1477 13.6492L11.748 13.7439C11.6479 13.5779 11.5342 13.3903 11.4069 13.1811C11.2805 12.9795 11.1585 12.7851 11.0411 12.5979C10.9245 12.4183 10.8231 12.2755 10.7369 12.1695C10.7024 12.1271 10.6617 12.0796 10.6149 12.027C10.5648 11.9786 10.5196 11.9411 10.4794 11.9147C10.4506 11.8909 10.4157 11.862 10.3746 11.828C10.3302 11.7982 10.29 11.7718 10.2538 11.7487L10.5687 11.2827C10.8399 11.4034 11.1596 11.5747 11.5277 11.7964C11.8967 12.0258 12.2886 12.3122 12.7035 12.6558C12.9335 12.8463 13.1636 13.054 13.3936 13.2791C13.6244 13.5118 13.8474 13.7414 14.0626 13.9681C14.2745 14.1989 14.4676 14.4107 14.6417 14.6033C14.8166 14.8036 14.9596 14.9669 15.0704 15.0933C15.1337 15.1595 15.201 15.2292 15.2725 15.3022C15.344 15.3752 15.4126 15.4389 15.4783 15.4933L15.0006 16.0115Z" fill="#565050"/>
<path d="M8.42891 25.808C8.31799 25.8293 8.17276 25.8481 7.99321 25.8644C7.81367 25.8807 7.6329 25.8934 7.45092 25.9025C7.26663 25.9164 7.10354 25.9231 6.96166 25.9227L6.97423 25.3996C7.13268 25.4024 7.29699 25.3993 7.46714 25.3902C7.63974 25.3883 7.8099 25.3792 7.97762 25.3628C8.14777 25.3537 8.30721 25.3362 8.45592 25.3101L8.42891 25.808ZM8.34416 26.9226C8.23092 26.9487 8.0869 26.9711 7.91211 26.9898C7.735 27.0134 7.5543 27.0321 7.37 27.0459C7.1857 27.0598 7.02499 27.0678 6.88787 27.0698L6.88983 26.5502C7.04353 26.5507 7.20546 26.5464 7.37561 26.5372C7.54577 26.5281 7.71587 26.513 7.88591 26.4919C8.05363 26.4755 8.20947 26.4531 8.35343 26.4247L8.34416 26.9226ZM9.97629 24.1096C9.86442 24.0347 9.75254 23.9598 9.64067 23.8849C9.52648 23.8148 9.40875 23.7459 9.28749 23.6782C9.09018 23.5718 8.84766 23.4364 8.55993 23.272C8.26988 23.1124 7.96081 22.9431 7.63274 22.7641C7.3071 22.5924 6.98262 22.4182 6.65929 22.2417C6.33365 22.0699 6.04013 21.9175 5.77871 21.7845C5.5173 21.6514 5.28384 21.5954 5.07833 21.6164C4.87757 21.6399 4.69868 21.7223 4.54165 21.8638C4.38938 22.0076 4.25763 22.1949 4.14641 22.4254C3.98885 22.7521 3.88675 23.0681 3.84011 23.3734C3.79822 23.6812 3.79638 23.9734 3.83458 24.2501C3.87753 24.5293 3.94871 24.7929 4.0481 25.0409C4.14518 25.2937 4.25512 25.5322 4.37793 25.7562L3.69501 25.9202C3.5889 25.7106 3.48719 25.4674 3.38987 25.1905C3.29024 24.9184 3.22108 24.6199 3.18241 24.2951C3.14373 23.9703 3.15095 23.6239 3.20406 23.2561C3.25718 22.8882 3.37874 22.5073 3.56874 22.1134C3.73558 21.7676 3.93499 21.4892 4.167 21.2782C4.39901 21.0672 4.66737 20.9465 4.9721 20.9162C5.27683 20.8858 5.62169 20.9686 6.00668 21.1646C6.22057 21.2735 6.45468 21.3956 6.70903 21.5311C6.96812 21.6689 7.23319 21.8128 7.50423 21.9628C7.77527 22.1127 8.04034 22.2566 8.29944 22.3945C8.56097 22.5396 8.80227 22.6714 9.02335 22.7899C9.24442 22.9084 9.42863 23.0052 9.57597 23.0802C9.71381 23.1503 9.84446 23.2108 9.96792 23.2617C10.0961 23.315 10.2183 23.3563 10.3345 23.3855L9.97629 24.1096Z" fill="#565050"/>
<path d="M8.31395 34.8139C8.24993 34.798 8.17791 34.7821 8.09789 34.7662C8.0232 34.7504 7.94851 34.7345 7.87382 34.7186C7.79913 34.708 7.73778 34.6948 7.68976 34.6789C7.35365 34.6047 7.00686 34.5146 6.64937 34.4084C6.29189 34.3076 5.93706 34.1935 5.58488 34.0661C5.23269 33.9386 4.90449 33.8004 4.60028 33.6515C4.29607 33.508 4.03185 33.3564 3.80762 33.1967C3.53 32.9945 3.27904 32.7896 3.05474 32.5819C2.83578 32.3796 2.66482 32.1718 2.54184 31.9587C2.41887 31.7455 2.35721 31.5163 2.35685 31.2709C2.35657 31.0736 2.41231 30.8895 2.52406 30.7187C2.63581 30.5479 2.79829 30.4116 3.01147 30.31C3.22466 30.2083 3.48592 30.1572 3.79525 30.1568C4.13125 30.1563 4.46734 30.2171 4.80352 30.3392C5.1397 30.4667 5.44928 30.6396 5.73226 30.8578C6.01525 31.0814 6.25028 31.3317 6.43734 31.6088C6.70991 32.003 6.90248 32.4001 7.01506 32.7999C7.12763 33.1997 7.18421 33.6023 7.18479 34.0076C7.18554 34.5303 7.07688 34.9945 6.8588 35.4001C6.64072 35.8111 6.33451 36.1316 5.94018 36.3615C5.55118 36.5968 5.09535 36.7148 4.57268 36.7156C4.04468 36.7164 3.58318 36.5971 3.18817 36.3577C2.7985 36.1236 2.48335 35.7908 2.24273 35.3591C2.00745 34.9328 1.8494 34.4344 1.76858 33.8638L2.33604 33.487C2.37398 33.9083 2.45451 34.2788 2.57764 34.5986C2.70077 34.9238 2.86116 35.1955 3.05881 35.4139C3.25646 35.6323 3.48603 35.7972 3.74752 35.9088C4.00903 36.0258 4.29178 36.084 4.59578 36.0836C4.99044 36.083 5.33965 35.9944 5.64339 35.818C5.95247 35.6415 6.19478 35.3905 6.37031 35.0649C6.54585 34.7446 6.63332 34.3711 6.6327 33.9445C6.63214 33.5551 6.56761 33.1846 6.4391 32.8328C6.31594 32.4863 6.13946 32.1559 5.90968 31.8416C5.74936 31.6178 5.55174 31.4234 5.31684 31.2585C5.08193 31.0935 4.83641 30.9632 4.58028 30.8676C4.32948 30.7773 4.08408 30.7323 3.84408 30.7327C3.57741 30.7331 3.36683 30.7867 3.21231 30.8936C3.06314 31.0059 2.98868 31.1527 2.98894 31.334C2.98913 31.462 3.02665 31.5926 3.10151 31.7258C3.1817 31.859 3.28589 31.9895 3.41407 32.1173C3.54226 32.2452 3.68376 32.3676 3.8386 32.4847C3.99878 32.6071 4.15893 32.7162 4.31907 32.812C4.52726 32.945 4.76745 33.0753 5.03963 33.2029C5.31182 33.3305 5.60266 33.45 5.91215 33.5616C6.22699 33.6784 6.5418 33.7793 6.85659 33.8641C7.17672 33.9543 7.48082 34.0258 7.7689 34.0787C7.84892 34.0946 7.9476 34.1051 8.06494 34.1103C8.18229 34.1208 8.2863 34.126 8.37696 34.1258L8.31395 34.8139ZM7.94925 31.5425C7.83728 31.564 7.71732 31.5881 7.58935 31.615C7.46673 31.6472 7.34944 31.6767 7.23748 31.7035C7.04556 31.7572 6.82965 31.8242 6.58977 31.9045C6.34988 31.9849 6.11 32.0679 5.87013 32.1536C5.63026 32.2446 5.40372 32.3383 5.19053 32.4347C4.98267 32.531 4.80947 32.6219 4.67092 32.7074C4.43645 32.8465 4.19668 33.0042 3.9516 33.1805C3.70652 33.3569 3.49345 33.5412 3.3124 33.7335L2.89567 33.2301C3.07677 33.0699 3.26855 32.9149 3.471 32.7653C3.67346 32.6156 3.90524 32.4659 4.16636 32.3162C4.32088 32.2146 4.5074 32.113 4.72592 32.0114C4.94977 31.9097 5.18962 31.8053 5.44547 31.6983C5.70133 31.5965 5.96252 31.4975 6.22904 31.4011C6.50091 31.3047 6.76212 31.2189 7.01268 31.1439C7.14062 31.1064 7.26589 31.0635 7.38849 31.0153C7.51643 30.9725 7.63103 30.9269 7.7323 30.8788L7.94925 31.5425Z" fill="#565050"/>
<path d="M9.51406 42.0927C9.44487 42.1033 9.36806 42.1163 9.28361 42.1317C9.20069 42.1522 9.1025 42.1775 8.98906 42.2076C8.91275 42.2316 8.79752 42.2651 8.64337 42.308C8.49075 42.356 8.31778 42.4105 8.12446 42.4713C7.93622 42.5305 7.74545 42.5906 7.55212 42.6514C7.3588 42.7122 7.18074 42.7683 7.01795 42.8195C6.76358 42.8995 6.49801 42.9887 6.22125 43.087C5.9445 43.1852 5.67613 43.2837 5.41616 43.3822C5.15618 43.4808 4.91834 43.5696 4.70263 43.6487C4.48692 43.7278 4.31548 43.7873 4.18829 43.8273C4.01023 43.8834 3.82685 43.8935 3.63814 43.8579C3.45096 43.8273 3.27678 43.7284 3.11559 43.5611C2.95084 43.4005 2.81818 43.1515 2.71759 42.8142C2.55299 42.2622 2.52392 41.8102 2.63037 41.458C2.73174 41.1075 2.96557 40.8745 3.33186 40.7593C3.56588 40.6856 3.78995 40.6906 4.00407 40.7742C4.21971 40.8628 4.41549 41.0249 4.5914 41.2602C4.7724 41.494 4.91776 41.7948 5.02749 42.1628C5.14789 42.5666 5.21234 42.96 5.22084 43.3431C5.23595 43.7297 5.21648 44.0936 5.16242 44.4348C5.10837 44.7761 5.03678 45.0865 4.94765 45.3662C4.86361 45.6442 4.78264 45.8765 4.70474 46.0631L4.05778 45.881C4.16875 45.656 4.27135 45.4029 4.36557 45.1217C4.46131 44.8455 4.53747 44.5504 4.59405 44.2363C4.65216 43.9273 4.67544 43.6042 4.66387 43.2668C4.65891 42.9329 4.60462 42.5922 4.50098 42.2446C4.39125 41.8767 4.24638 41.6148 4.06637 41.459C3.88788 41.3083 3.70961 41.261 3.53155 41.317C3.41963 41.3522 3.326 41.4208 3.25068 41.5228C3.18044 41.6231 3.14097 41.7614 3.13225 41.9374C3.12353 42.1135 3.15652 42.3267 3.23119 42.5771C3.27539 42.7253 3.33358 42.8552 3.40577 42.9666C3.48305 43.0765 3.58068 43.152 3.69868 43.1931C3.8182 43.2394 3.96445 43.2353 4.13742 43.1809C4.28495 43.1344 4.47421 43.0693 4.70518 42.9854C4.94276 42.9051 5.1923 42.8182 5.4538 42.7247C5.72039 42.6296 5.97679 42.5378 6.22303 42.4491C6.47079 42.3655 6.67861 42.2973 6.84649 42.2445C7.01946 42.1901 7.19498 42.1349 7.37304 42.0788C7.55619 42.0212 7.73679 41.9644 7.91485 41.9083C8.09291 41.8523 8.26333 41.7987 8.42613 41.7474C8.59045 41.7013 8.73875 41.6575 8.87102 41.6158C8.93207 41.5966 9.01016 41.5693 9.1053 41.5337C9.20043 41.4982 9.27192 41.4673 9.31974 41.4411L9.51406 42.0927ZM7.80671 39.4182C7.82446 39.5524 7.84831 39.707 7.87825 39.8821C7.90819 40.0572 7.94042 40.2399 7.97494 40.4303C8.01607 40.6242 8.05669 40.8071 8.09681 40.979C8.14354 41.1543 8.18595 41.3059 8.22405 41.4337C8.36884 41.9192 8.53447 42.4094 8.72097 42.9041C8.90898 43.404 9.1176 43.8891 9.34683 44.3592L8.78748 44.5268C8.67313 44.2553 8.55116 43.9583 8.42158 43.6357C8.29199 43.3131 8.16444 42.9786 8.03894 42.6324C7.91495 42.2913 7.8019 41.9495 7.69979 41.607C7.64645 41.4281 7.59084 41.2136 7.53294 40.9635C7.47505 40.7134 7.42047 40.465 7.36919 40.2184C7.31943 39.9769 7.2778 39.772 7.24429 39.6036L7.80671 39.4182ZM6.17748 39.889C6.19828 40.0334 6.22366 40.1931 6.2536 40.3682C6.28354 40.5433 6.3201 40.7218 6.36326 40.9039C6.40643 41.086 6.44731 41.2604 6.48591 41.4272C6.52959 41.5923 6.57048 41.7388 6.60858 41.8666C6.71983 42.2397 6.83491 42.5976 6.95381 42.9403C7.07931 43.2866 7.20762 43.6235 7.33873 43.9513C7.47646 44.2825 7.62029 44.6062 7.77022 44.9224L7.1956 45.0948C7.08379 44.8505 6.97706 44.6046 6.87543 44.357C6.7804 44.113 6.68715 43.8656 6.59569 43.6149C6.50575 43.3692 6.41607 43.1151 6.32664 42.8526C6.24383 42.5935 6.15899 42.3183 6.07212 42.027C6.0203 41.8532 5.96519 41.6497 5.90678 41.4165C5.8499 41.1884 5.79403 40.9545 5.73919 40.7145C5.68587 40.4797 5.64195 40.2672 5.60744 40.0768L6.17748 39.889Z" fill="#565050"/>
<path d="M11.1255 48.3017C11.0013 48.3533 10.8775 48.4109 10.7541 48.4745C10.6352 48.5353 10.5177 48.5984 10.4015 48.6638C10.2055 48.7722 9.96406 48.9086 9.67725 49.073C9.39043 49.2374 9.08547 49.413 8.76234 49.5998C8.44376 49.7838 8.12652 49.9701 7.81062 50.1587C7.49473 50.3473 7.21196 50.5186 6.9623 50.6726C6.71265 50.8266 6.54119 50.9981 6.44791 51.1872C6.35464 51.3763 6.32603 51.5756 6.36206 51.7852C6.3981 51.9948 6.48072 52.21 6.60991 52.4311C6.79293 52.7442 6.99704 53.0035 7.22224 53.2092C7.45198 53.412 7.69053 53.5718 7.9379 53.6886C8.18981 53.8026 8.44415 53.8838 8.70092 53.9321C8.96038 53.985 9.21496 54.0191 9.46466 54.0342L9.23179 54.7135C8.9984 54.6946 8.74205 54.6522 8.46275 54.5865C8.19067 54.5225 7.91111 54.4193 7.62405 54.2769C7.33699 54.1345 7.05563 53.9384 6.77998 53.6887C6.50702 53.4436 6.26018 53.1323 6.03948 52.7547C5.84838 52.4278 5.72875 52.107 5.68058 51.7921C5.63241 51.4773 5.67781 51.1799 5.81679 50.8999C5.95578 50.62 6.2091 50.3666 6.57678 50.1398C6.78104 50.0138 7.00707 49.8775 7.25488 49.7309C7.50723 49.5815 7.76773 49.4302 8.03638 49.277C8.30503 49.1238 8.56553 48.9725 8.81788 48.8231C9.07476 48.6709 9.31122 48.5313 9.52726 48.4043C9.74329 48.2773 9.92166 48.1704 10.0624 48.0836C10.1895 48.0052 10.3093 47.925 10.422 47.843C10.5346 47.761 10.6355 47.68 10.7246 47.6L11.1255 48.3017Z" fill="#565050"/>
<path d="M12.1748 54.5096C12.2899 54.6128 12.3935 54.7049 12.4856 54.786C12.5812 54.8631 12.6578 54.9255 12.7152 54.9733C12.8183 55.0501 12.9635 55.1638 13.151 55.3143C13.3458 55.4646 13.5657 55.6388 13.8106 55.8371C14.059 56.0314 14.3248 56.2424 14.6079 56.47C14.8909 56.6976 15.1759 56.927 15.4628 57.1583C15.6923 57.3418 15.9067 57.5182 16.1059 57.6874C16.3087 57.8527 16.4945 58.009 16.6632 58.1563C16.8355 58.2996 16.9869 58.4303 17.1174 58.5483L16.6866 59.0215C16.5825 58.9141 16.4594 58.7959 16.3174 58.6668C16.1753 58.5377 16.0298 58.4164 15.8808 58.3029C15.7355 58.1854 15.5984 58.0944 15.4697 58.0299C15.2048 57.9011 14.9269 57.8263 14.6358 57.8054C14.3522 57.7843 14.0719 57.8071 13.795 57.8737C13.5216 57.9364 13.2662 58.0348 13.0287 58.1689C12.7987 58.3028 12.6047 58.4565 12.4467 58.63C12.2349 58.8627 12.0885 59.1028 12.0074 59.3502C11.9299 59.5937 11.9027 59.8374 11.9258 60.0813C11.9527 60.329 12.0166 60.5716 12.1177 60.8091C12.2225 61.0503 12.353 61.2791 12.5092 61.4957C12.6653 61.7122 12.834 61.915 13.0153 62.1039L12.401 62.4342C12.1966 62.2231 12.01 61.9846 11.841 61.7188C11.6723 61.4606 11.5348 61.188 11.4284 60.901C11.3256 60.61 11.2673 60.3137 11.2534 60.0121C11.2396 59.7105 11.2818 59.4146 11.3801 59.1246C11.4783 58.8345 11.6477 58.5574 11.8883 58.2931C12.1683 57.9855 12.4788 57.7514 12.8196 57.5909C13.1678 57.4301 13.5144 57.3306 13.8593 57.2923C14.2042 57.254 14.5135 57.2666 14.7874 57.33C14.65 57.2276 14.4819 57.0994 14.2832 56.9454C14.0845 56.7915 13.8686 56.6247 13.6355 56.4452C13.4099 56.2654 13.1806 56.0895 12.9478 55.9176C12.715 55.7457 12.4937 55.5848 12.284 55.4351C12.0817 55.2851 11.9064 55.1648 11.7582 55.0742L12.1748 54.5096Z" fill="#565050"/>
<path d="M24.5353 60.6667C24.5 60.7052 24.4639 60.7547 24.4269 60.8152C24.3967 60.8724 24.3647 60.9262 24.3311 60.9765C24.2219 61.1699 24.0941 61.419 23.9479 61.7237C23.8016 62.0284 23.6553 62.3585 23.509 62.7141C23.3644 63.0646 23.2341 63.4145 23.118 63.7637C23.0103 64.0876 22.9253 64.411 22.8629 64.7338C22.8056 65.0584 22.7625 65.3739 22.7337 65.6803C22.7116 65.9833 22.6988 66.2671 22.6952 66.5314L22.0962 66.5077C22.0964 66.2535 22.1134 65.9656 22.1473 65.6441C22.1828 65.3175 22.2351 64.9826 22.3042 64.6395C22.375 64.2914 22.4634 63.9579 22.5694 63.639C22.6569 63.3759 22.7536 63.1103 22.8595 62.8423C22.9705 62.576 23.0815 62.3183 23.1925 62.069C23.3051 61.8147 23.4094 61.5771 23.5052 61.3565C23.6061 61.1375 23.6943 60.9481 23.77 60.7882C23.7969 60.7241 23.8238 60.6601 23.8507 60.5961C23.8776 60.532 23.8961 60.4764 23.9062 60.4291L24.5353 60.6667ZM22.9994 61.179C23.4423 61.3344 23.8843 61.4753 24.3255 61.6019C24.7668 61.7284 25.1946 61.8361 25.609 61.925C26.0284 62.0156 26.4277 62.0822 26.8069 62.1248L26.6277 62.6892C26.3408 62.6395 26.0321 62.5792 25.7016 62.5085C25.3778 62.4344 25.0473 62.3552 24.7101 62.2708C24.3745 62.1814 24.0457 62.0886 23.7236 61.9926C23.4015 61.8965 23.0996 61.7991 22.8177 61.7002C22.712 61.6631 22.5846 61.6156 22.4353 61.5575C22.2876 61.4945 22.1392 61.4339 21.9899 61.3759C21.8423 61.3128 21.7165 61.2602 21.6125 61.218L21.7866 60.6434C21.8722 60.6903 21.9904 60.7488 22.1414 60.8187C22.2924 60.8886 22.4467 60.9569 22.6044 61.0235C22.762 61.0901 22.8937 61.142 22.9994 61.179ZM25.8521 63.1716C25.8269 63.1966 25.7949 63.2335 25.7563 63.2821C25.7244 63.3274 25.6891 63.3744 25.6505 63.423C25.6185 63.4683 25.5875 63.5111 25.5572 63.5513C25.2515 63.964 24.9281 64.3281 24.5872 64.6436C24.248 64.9541 23.9046 65.2179 23.557 65.4351C23.2112 65.6471 22.8737 65.8085 22.5447 65.9191C22.2359 66.0199 21.917 66.0832 21.5881 66.1091C21.2592 66.135 20.9613 66.1011 20.6946 66.0076C20.5336 65.9511 20.3969 65.8636 20.2845 65.745C20.1722 65.6265 20.0993 65.4823 20.0659 65.3123C20.0325 65.1424 20.0511 64.9511 20.1218 64.7385C20.2076 64.4804 20.3479 64.2443 20.5428 64.0301C20.7393 63.8108 20.971 63.6208 21.238 63.4602C21.51 63.3013 21.7987 63.1765 22.1042 63.0859C22.4164 62.992 22.7319 62.9388 23.0508 62.9263C23.3276 62.9217 23.6188 62.9419 23.9241 62.9869C24.2345 63.0336 24.5105 63.0993 24.7521 63.1841C25.2302 63.3518 25.6151 63.5801 25.9068 63.8689C26.1986 64.1578 26.3896 64.4791 26.4799 64.8329C26.5769 65.1834 26.5665 65.5358 26.4488 65.89C26.3579 66.1633 26.2234 66.4072 26.0454 66.6217C25.8724 66.8379 25.6507 67.0144 25.3804 67.1513C25.1168 67.2849 24.8047 67.3703 24.4438 67.4076C24.083 67.4449 23.6719 67.4222 23.2105 67.3395L23.055 66.717C23.5281 66.8321 23.956 66.8635 24.3386 66.8112C24.7213 66.759 25.0461 66.6356 25.3131 66.441C25.5801 66.2465 25.7682 65.9847 25.8776 65.6558C25.96 65.4078 25.9678 65.1562 25.9009 64.901C25.834 64.6458 25.6907 64.4091 25.4711 64.1908C25.2582 63.9691 24.963 63.7921 24.5855 63.6597C24.2685 63.5485 23.9615 63.4832 23.6645 63.4637C23.3725 63.4461 23.1166 63.4467 22.8967 63.4657C22.5729 63.4933 22.2573 63.5719 21.9501 63.7015C21.6479 63.8329 21.3877 63.9987 21.1694 64.199C20.9527 64.3943 20.8057 64.6083 20.7283 64.8411C20.6762 64.998 20.6719 65.1293 20.7154 65.235C20.7657 65.3374 20.8612 65.4133 21.0022 65.4628C21.1884 65.5281 21.4149 65.5482 21.6817 65.5231C21.9536 65.4998 22.249 65.4226 22.5679 65.2915C23.0027 65.1163 23.4342 64.8664 23.8624 64.5419C24.2956 64.2192 24.7004 63.7791 25.0767 63.2217C25.1003 63.1847 25.1255 63.1427 25.1524 63.0956C25.1793 63.0486 25.207 62.999 25.2356 62.9468C25.2692 62.8964 25.2927 62.851 25.3062 62.8105L25.8521 63.1716Z" fill="#565050"/>
<path d="M30.6728 62.6634C30.7741 62.6693 30.8781 62.6753 30.9847 62.6813C31.0967 62.6873 31.1927 62.6906 31.2727 62.6911C31.3793 62.6918 31.5153 62.6899 31.6807 62.6856C31.8514 62.6814 32.0274 62.6744 32.2088 62.6649C32.3902 62.6554 32.5609 62.6484 32.721 62.6441C32.881 62.6344 33.0011 62.6271 33.0811 62.6223C33.1611 62.6121 33.2332 62.6019 33.2973 62.5916C33.3667 62.5761 33.4281 62.5578 33.4816 62.5368L33.8797 62.8673C33.8421 62.9097 33.8045 62.9521 33.7669 62.9946C33.7347 63.037 33.7024 63.0822 33.6701 63.13C33.584 63.2681 33.4815 63.4648 33.3626 63.7201C33.2438 63.97 33.1169 64.2439 32.9818 64.5417C32.8521 64.8343 32.7224 65.1161 32.5928 65.3873C32.5118 65.5682 32.4226 65.765 32.3254 65.9777C32.2335 66.1851 32.1389 66.3979 32.0416 66.6159C31.9444 66.8287 31.8472 67.0281 31.7501 67.2141C31.6584 67.4003 31.5694 67.5544 31.4834 67.6765C31.3382 67.8783 31.1854 68.0213 31.0249 68.1057C30.8644 68.1847 30.6802 68.2235 30.4722 68.2223C30.1735 68.2204 29.9261 68.1202 29.7299 67.9216C29.5338 67.7231 29.4367 67.4558 29.4386 67.1198C29.4404 66.8212 29.5087 66.5443 29.6435 66.2891C29.7837 66.0286 29.9744 65.8031 30.2155 65.6126C30.4619 65.4221 30.7535 65.2746 31.0901 65.17C31.4321 65.0655 31.8057 65.0145 32.211 65.017C32.659 65.0197 33.0907 65.0757 33.5061 65.185C33.9268 65.2889 34.318 65.4247 34.6797 65.5923C35.0467 65.7545 35.3791 65.9273 35.6767 66.1105C35.9796 66.2883 36.2373 66.4553 36.4497 66.6112L36.1497 67.2974C35.9162 67.0933 35.6534 66.8917 35.3612 66.6925C35.0691 66.488 34.7502 66.302 34.4045 66.1346C34.0588 65.9671 33.6916 65.8315 33.3029 65.7277C32.9195 65.624 32.5224 65.5709 32.1118 65.5684C31.6745 65.5656 31.298 65.638 30.9825 65.7854C30.6723 65.9274 30.4339 66.1126 30.2672 66.3409C30.1059 66.564 30.0245 66.7981 30.0231 67.0434C30.0221 67.2194 30.0693 67.3557 30.1647 67.4523C30.2655 67.5436 30.3772 67.5897 30.4999 67.5904C30.5905 67.591 30.6733 67.5702 30.7483 67.5279C30.8232 67.4857 30.9009 67.4142 30.9815 67.3134C31.0675 67.2019 31.1536 67.0665 31.2399 66.907C31.3262 66.7475 31.4125 66.5747 31.499 66.3886C31.5854 66.2024 31.6692 66.0136 31.7503 65.8221C31.8314 65.6306 31.9125 65.4525 31.9934 65.2876C32.1015 65.0536 32.2096 64.8116 32.3177 64.5616C32.4312 64.3116 32.5419 64.0697 32.65 63.8357C32.7633 63.6017 32.8659 63.389 32.9577 63.1976C32.8777 63.2024 32.763 63.207 32.6136 63.2114C32.4696 63.2159 32.3122 63.2229 32.1415 63.2325C31.9708 63.2368 31.8081 63.2438 31.6534 63.2535C31.504 63.2579 31.384 63.2625 31.2933 63.2672C31.2079 63.272 31.1119 63.2795 31.0051 63.2895C30.8984 63.2941 30.7971 63.3015 30.701 63.3116L30.6728 62.6634ZM35.6624 64.4463C35.6324 65.0115 35.5734 65.5258 35.4854 65.9893C35.3973 66.4527 35.2642 66.8706 35.086 67.2428C34.9078 67.6151 34.6658 67.9496 34.3601 68.2463C34.0544 68.5378 33.6689 68.7967 33.2035 69.0232L32.6781 68.5799C33.1486 68.3855 33.5313 68.1532 33.8262 67.883C34.1212 67.6075 34.3496 67.3129 34.5114 66.9993C34.6786 66.6803 34.7952 66.3583 34.8611 66.0334C34.9323 65.7085 34.9822 65.3995 35.0105 65.1063C35.0166 64.9837 35.02 64.8584 35.0207 64.7304C35.0268 64.6024 35.0249 64.4824 35.0149 64.3703L35.6624 64.4463Z" fill="#565050"/>
<path d="M38.1182 63.3769C38.2674 63.369 38.4033 63.3613 38.5259 63.3538C38.6537 63.341 38.7549 63.3312 38.8294 63.3246C38.9571 63.3064 39.1408 63.2845 39.3804 63.259C39.6253 63.2281 39.9048 63.1966 40.219 63.1645C40.5331 63.127 40.8712 63.0891 41.2332 63.0509C41.5953 63.0126 41.9601 62.9743 42.3275 62.9359C42.6204 62.9041 42.8973 62.878 43.1583 62.8575C43.4193 62.8316 43.6616 62.8114 43.8854 62.7969C44.1091 62.777 44.3089 62.7628 44.4848 62.7545L44.4953 63.3944C44.346 63.397 44.1754 63.4026 43.9835 63.4112C43.7917 63.4199 43.6025 63.4339 43.4161 63.4531C43.2298 63.4723 43.0676 63.5045 42.9297 63.5495C42.6485 63.6451 42.3948 63.7882 42.1686 63.9788C41.9476 64.164 41.7591 64.3779 41.6031 64.6207C41.447 64.8634 41.3285 65.1135 41.2474 65.371C41.1716 65.6283 41.1357 65.877 41.1396 66.1169C41.1447 66.4262 41.2025 66.6973 41.313 66.9301C41.4234 67.1575 41.5706 67.3497 41.7545 67.5065C41.9438 67.6632 42.1566 67.7902 42.3928 67.8875C42.6291 67.9847 42.8784 68.0578 43.1405 68.1066C43.408 68.1499 43.6724 68.172 43.9337 68.1728L43.7127 68.8408C43.4139 68.8353 43.1146 68.7978 42.8147 68.7283C42.515 68.6642 42.228 68.5678 41.9539 68.4392C41.6796 68.3053 41.4341 68.1361 41.2174 67.9319C41.0007 67.7276 40.8287 67.4879 40.7015 67.2127C40.5743 66.9375 40.5078 66.6213 40.5019 66.264C40.4951 65.8481 40.5608 65.4629 40.699 65.1084C40.8424 64.7486 41.0266 64.4333 41.2515 64.1627C41.4764 63.8921 41.7104 63.6827 41.9533 63.5345C41.783 63.5587 41.5701 63.5864 41.3146 63.6175C41.0644 63.6485 40.7956 63.6825 40.5081 63.7195C40.2206 63.7512 39.9305 63.7882 39.6378 63.8306C39.3505 63.873 39.0818 63.915 38.8318 63.9566C38.5817 63.993 38.3716 64.0313 38.2016 64.0716L38.1182 63.3769ZM43.3597 64.3982C43.4197 64.4825 43.4908 64.5906 43.573 64.7226C43.6604 64.8491 43.7453 64.9809 43.8276 65.1182C43.9097 65.2501 43.9785 65.377 44.0338 65.4987L43.629 65.6977C43.5352 65.502 43.4306 65.3091 43.3155 65.1191C43.2003 64.9237 43.08 64.7444 42.9546 64.5813L43.3597 64.3982ZM44.226 64.0471C44.2914 64.1314 44.3678 64.2367 44.4552 64.3632C44.5427 64.4897 44.6275 64.6216 44.7098 64.7589C44.7973 64.8907 44.874 65.0174 44.94 65.1389L44.5274 65.3461C44.4282 65.1505 44.3183 64.9577 44.1978 64.7677C44.0827 64.5777 43.9625 64.4011 43.8371 64.2379L44.226 64.0471Z" fill="#565050"/>
<path d="M50.2478 60.6141C50.2587 60.6385 50.2736 60.6845 50.2923 60.7524C50.3159 60.8179 50.3395 60.8834 50.3631 60.949C50.3893 61.0073 50.4076 61.0547 50.4181 61.091C50.4548 61.1858 50.5092 61.3134 50.5812 61.474C50.6533 61.6345 50.732 61.8097 50.8172 61.9995C50.9023 62.1892 50.9886 62.3814 51.076 62.576C51.1682 62.7683 51.2525 62.9497 51.329 63.12C51.4103 63.288 51.4771 63.4303 51.5295 63.5471L50.8483 63.5335C50.8178 63.4654 50.7719 63.3632 50.7107 63.227C50.6474 63.0859 50.5753 62.9253 50.4945 62.7453C50.4115 62.5604 50.3271 62.3791 50.2415 62.2014C50.1607 62.0214 50.084 61.8571 50.0115 61.7085C49.9389 61.56 49.8817 61.4455 49.8397 61.3651C49.7912 61.27 49.7425 61.181 49.6935 61.098C49.6424 61.0101 49.6078 60.9527 49.5899 60.9258L50.2478 60.6141ZM46.8643 63.4474C47.0619 63.3538 47.285 63.2451 47.5334 63.1215C47.7797 62.9931 48.0404 62.8577 48.3156 62.7156C48.5956 62.5711 48.879 62.4279 49.1661 62.2861C49.4531 62.1442 49.728 62.008 49.9909 61.8776C50.2586 61.7448 50.5058 61.6248 50.7323 61.5175C50.9492 61.4147 51.1661 61.312 51.383 61.2092C51.5998 61.1064 51.8023 61.0105 51.9902 60.9215C52.183 60.8301 52.3528 60.7527 52.4996 60.689C52.649 60.6182 52.7671 60.5623 52.8538 60.5212L53.0891 61.0647C52.8823 61.1509 52.6067 61.2726 52.2623 61.4298C51.9206 61.5799 51.4846 61.7806 50.9544 62.0318C50.6411 62.1802 50.3156 62.3403 49.9777 62.5122C49.6425 62.6769 49.306 62.8452 48.9682 63.0171C48.6304 63.1889 48.3043 63.3611 47.9902 63.5335C47.6786 63.6988 47.3922 63.8552 47.1311 64.0025L46.8643 63.4474ZM51.6134 63.7729C51.7575 64.094 51.8306 64.3869 51.8325 64.6515C51.8392 64.9139 51.7822 65.1385 51.6616 65.3255C51.5458 65.5101 51.377 65.655 51.1553 65.76C51.0059 65.8308 50.848 65.8762 50.6815 65.896C50.5177 65.9087 50.3551 65.8914 50.1935 65.844C50.0346 65.7895 49.8876 65.7028 49.7524 65.5839C49.6198 65.4579 49.5098 65.2976 49.4225 65.103C49.3132 64.8597 49.2739 64.6158 49.3044 64.3712C49.3348 64.1267 49.4214 63.9028 49.5639 63.6995C49.7113 63.494 49.8982 63.3376 50.1248 63.2303C50.4091 63.0955 50.6724 63.0505 50.9145 63.0951C51.1593 63.1325 51.3801 63.2403 51.577 63.4184C51.7717 63.5917 51.9324 63.8195 52.059 64.1017C52.1683 64.3449 52.2435 64.6102 52.2848 64.8974C52.3309 65.1824 52.3245 65.4805 52.2655 65.7917C52.2112 66.1006 52.0881 66.4186 51.8959 66.7456C51.7064 67.0655 51.4279 67.3892 51.0606 67.7167L50.3599 67.4645C50.6527 67.2313 50.902 66.9923 51.1076 66.7474C51.3133 66.5024 51.4659 66.2501 51.5656 65.9905C51.6653 65.7308 51.7085 65.4625 51.6953 65.1856C51.6868 64.9064 51.6149 64.616 51.4794 64.3143C51.3309 63.9835 51.154 63.7782 50.9487 63.6984C50.7434 63.6187 50.5419 63.6256 50.3443 63.7192C50.219 63.7786 50.1151 63.8662 50.0326 63.9819C49.948 64.0929 49.8957 64.2238 49.8759 64.3748C49.8608 64.5236 49.8893 64.6782 49.9614 64.8388C50.0641 65.0675 50.2161 65.2108 50.4175 65.2688C50.6237 65.3245 50.8256 65.3056 51.0232 65.2119C51.1726 65.1412 51.2818 65.0393 51.3507 64.9063C51.4174 64.7685 51.4342 64.6042 51.4012 64.4133C51.3707 64.2154 51.2783 63.9966 51.124 63.757L51.6134 63.7729Z" fill="#565050"/>
<path d="M58.6854 53.5635C58.7081 53.6115 58.7405 53.6643 58.7827 53.7222C58.8242 53.7724 58.862 53.8229 58.8962 53.8737C59.0341 54.0501 59.2164 54.2649 59.4429 54.5182C59.6694 54.7715 59.9191 55.0344 60.1921 55.3068C60.461 55.5757 60.7343 55.8309 61.0121 56.0722C61.2698 56.2961 61.535 56.4982 61.8077 56.6787C62.0838 56.855 62.3566 57.0143 62.6262 57.1567C62.895 57.2914 63.1495 57.4101 63.3896 57.5127L63.1564 58.0728C62.9243 57.9772 62.6675 57.853 62.3859 57.7001C62.1003 57.5438 61.8131 57.3684 61.5242 57.174C61.2314 56.976 60.9582 56.7669 60.7045 56.5465C60.4952 56.3647 60.2869 56.1731 60.0796 55.9719C59.8758 55.7665 59.6796 55.5643 59.4913 55.3654C59.2989 55.1629 59.1188 54.9747 58.9512 54.8008C58.787 54.6229 58.6452 54.4679 58.5259 54.336C58.477 54.2864 58.428 54.2368 58.3791 54.1873C58.3301 54.1377 58.2858 54.0992 58.2462 54.0718L58.6854 53.5635ZM58.6105 55.2147C58.9089 54.8523 59.1937 54.4854 59.4651 54.1138C59.7365 53.7422 59.9859 53.3762 60.2135 53.016C60.4444 52.6516 60.6463 52.2973 60.8192 51.9531L61.2711 52.3352C61.1243 52.589 60.9603 52.8596 60.7789 53.147C60.5969 53.4268 60.4078 53.711 60.2117 53.9996C60.0115 54.2847 59.8106 54.5623 59.6091 54.8321C59.4076 55.102 59.212 55.3523 59.0222 55.5829C58.951 55.6693 58.8625 55.7726 58.7568 55.8926C58.6471 56.0091 58.5393 56.1274 58.4336 56.2474C58.3239 56.364 58.2314 56.4637 58.1562 56.5467L57.6931 56.1655C57.7662 56.1019 57.8613 56.0115 57.9784 55.8944C58.0956 55.7772 58.2125 55.6563 58.329 55.5315C58.4455 55.4067 58.5394 55.3011 58.6105 55.2147ZM61.4375 53.253C61.4514 53.2864 61.4738 53.3305 61.5045 53.3855C61.5346 53.4328 61.565 53.4839 61.5958 53.5389C61.6258 53.5862 61.6539 53.6318 61.68 53.6756C61.9487 54.121 62.1669 54.5647 62.3345 55.007C62.4981 55.4458 62.6177 55.871 62.6931 56.2826C62.7646 56.6907 62.7927 57.0718 62.7775 57.4258C62.7603 57.757 62.7055 58.0837 62.6129 58.4058C62.5203 58.728 62.3842 58.9981 62.2046 59.2164C62.0961 59.3481 61.9679 59.4451 61.82 59.5073C61.6721 59.5695 61.5147 59.5846 61.3477 59.5525C61.1808 59.5205 61.0127 59.431 60.8436 59.2841C60.6383 59.1057 60.4723 58.8838 60.3455 58.6183C60.2148 58.3493 60.1232 58.0579 60.0709 57.744C60.0219 57.426 60.01 57.1049 60.0352 56.7808C60.0597 56.449 60.1226 56.1293 60.2239 55.8218C60.3175 55.5571 60.4388 55.2881 60.5877 55.0149C60.7401 54.7376 60.8976 54.5002 61.0603 54.3025C61.3823 53.9114 61.7267 53.6315 62.0935 53.4628C62.4602 53.2941 62.8211 53.2333 63.176 53.2803C63.5302 53.3197 63.8483 53.4619 64.1301 53.7067C64.3475 53.8956 64.5227 54.1148 64.6556 54.3645C64.7918 54.61 64.8747 54.8868 64.9042 55.1949C64.933 55.4954 64.9007 55.824 64.8073 56.1807C64.7139 56.5374 64.5479 56.9194 64.3094 57.3266L63.6861 57.2406C63.9584 56.8345 64.1382 56.4398 64.2257 56.0568C64.3132 55.6737 64.3152 55.3189 64.2319 54.9923C64.1486 54.6656 63.9761 54.3886 63.7144 54.1613C63.5172 53.9899 63.2902 53.8881 63.0336 53.8558C62.777 53.8236 62.5103 53.8708 62.2334 53.9975C61.9558 54.1165 61.6899 54.3305 61.4357 54.6393C61.2221 54.8987 61.054 55.1658 60.9313 55.4406C60.8121 55.7113 60.7223 55.9546 60.6619 56.1705C60.5727 56.4885 60.533 56.8178 60.5428 57.1582C60.556 57.4945 60.6154 57.804 60.7212 58.0865C60.8229 58.3656 60.9664 58.5856 61.1516 58.7465C61.2764 58.8549 61.3947 58.9083 61.5066 58.9066C61.6178 58.8973 61.7209 58.835 61.8158 58.7197C61.9412 58.5674 62.0397 58.3598 62.111 58.0969C62.1858 57.8299 62.2197 57.5204 62.2127 57.1682C62.2063 56.6895 62.1306 56.1858 61.9856 55.6573C61.844 55.1247 61.5853 54.575 61.2093 54.0083C61.1839 53.9721 61.1544 53.9323 61.121 53.8891C61.0875 53.8459 61.052 53.801 61.0145 53.7542C60.9804 53.7034 60.9472 53.664 60.915 53.636L61.4375 53.253Z" fill="#565050"/>
<path d="M61.1001 47.4864C61.2194 47.5871 61.3605 47.6977 61.5236 47.8182C61.6838 47.9315 61.8538 48.0493 62.0335 48.1715C62.2105 48.2866 62.3812 48.3959 62.5456 48.4995C62.7122 48.5982 62.8566 48.681 62.9787 48.7479C62.8276 48.586 62.6822 48.3974 62.5424 48.182C62.4025 47.9667 62.2902 47.7346 62.2054 47.4856C62.1158 47.2344 62.064 46.9828 62.0501 46.7308C62.0383 46.4738 62.0818 46.2301 62.1805 45.9997C62.3211 45.6712 62.5471 45.4281 62.8583 45.2703C63.1716 45.1076 63.5458 45.0397 63.9809 45.0667C64.416 45.0936 64.8887 45.2224 65.399 45.453C65.9045 45.6814 66.3118 45.9562 66.6209 46.2773C66.9252 46.5962 67.1473 46.9511 67.2874 47.3421C67.4274 47.733 67.4957 48.156 67.4923 48.6109C67.491 49.0608 67.4316 49.5314 67.3141 50.0225L66.6412 50.1309C66.753 49.7074 66.824 49.2978 66.8543 48.9019C66.8819 48.4989 66.8492 48.1213 66.7564 47.7692C66.6587 47.4149 66.4799 47.0942 66.22 46.8071C65.9622 46.515 65.6049 46.2658 65.1481 46.0593C64.7641 45.8858 64.405 45.7762 64.0708 45.7305C63.7316 45.6826 63.4403 45.706 63.1967 45.8007C62.9531 45.8954 62.7757 46.0727 62.6644 46.3325C62.5657 46.5629 62.5442 46.8165 62.5997 47.0932C62.6552 47.3699 62.7618 47.6492 62.9195 47.9312C63.0745 48.206 63.2625 48.4577 63.4836 48.6864C63.6999 48.9128 63.9218 49.0921 64.1495 49.2243C64.282 49.3076 64.4163 49.38 64.5524 49.4415C64.6906 49.4981 64.8573 49.5558 65.0524 49.6148L64.8537 50.2008C64.7092 50.1589 64.5331 50.1028 64.3255 50.0323C64.1199 49.957 63.8981 49.8655 63.6599 49.7579C63.4898 49.681 63.3034 49.588 63.1007 49.4789C62.8953 49.3626 62.6898 49.2464 62.4844 49.1301C62.2762 49.0068 62.0777 48.8878 61.8889 48.7732C61.7023 48.6538 61.5402 48.5513 61.4028 48.4658C61.2973 48.4006 61.1957 48.34 61.0978 48.2841C60.9951 48.2259 60.8962 48.1725 60.8011 48.1236L61.1001 47.4864Z" fill="#565050"/>
<path d="M62.6345 39.1239C62.7091 39.1352 62.789 39.1492 62.8742 39.1658C62.9541 39.1825 63.0339 39.1991 63.1138 39.2158C63.2043 39.2378 63.3321 39.2629 63.4973 39.2909C63.6624 39.3188 63.8381 39.3523 64.0245 39.3911C64.2056 39.4245 64.3813 39.4606 64.5517 39.4993C64.7752 39.5598 65.0307 39.6312 65.3181 39.7135C65.6002 39.7904 65.9035 39.8835 66.228 39.9928C66.5472 40.0967 66.8743 40.214 67.2093 40.3447C67.539 40.4754 67.8659 40.6193 68.1901 40.7766C68.5142 40.9339 68.8223 41.1044 69.1142 41.288L68.8453 41.9339C68.6067 41.7506 68.336 41.5778 68.0332 41.4154C67.7304 41.2529 67.4169 41.1037 67.0926 40.9678C66.763 40.8318 66.4385 40.7092 66.1194 40.6C65.8002 40.4907 65.5049 40.3977 65.2335 40.3208C64.9568 40.2386 64.7199 40.1754 64.5229 40.1311C64.2088 40.0539 63.8786 39.9899 63.5323 39.9392C63.186 39.8884 62.8609 39.8618 62.5569 39.8593L62.6345 39.1239ZM63.5834 36.3795C63.7444 36.2527 63.9481 36.121 64.1944 35.9843C64.4409 35.8423 64.7006 35.7057 64.9736 35.5746C65.2466 35.4381 65.5116 35.3149 65.7684 35.205C66.0253 35.0897 66.2473 35.0008 66.4345 34.9383L66.7258 35.5567C66.5173 35.6137 66.282 35.6944 66.0199 35.799C65.7578 35.8982 65.4929 36.0134 65.2253 36.1446C64.9523 36.2704 64.6953 36.4044 64.4542 36.5465C64.2078 36.6831 64.0041 36.8228 63.843 36.9656L63.5834 36.3795ZM64.3725 42.018C64.3788 41.89 64.3824 41.77 64.3833 41.658C64.3841 41.5461 64.3824 41.426 64.378 41.298C64.3736 41.1806 64.3667 41.0286 64.3575 40.8418C64.3429 40.6497 64.3285 40.4442 64.3142 40.2254C64.2945 40.0066 64.2775 39.7878 64.2632 39.569C64.2435 39.3502 64.229 39.1501 64.2197 38.9686C64.2051 38.7872 64.1982 38.6431 64.199 38.5365C64.2008 38.2965 64.2425 38.0808 64.3239 37.8894C64.4001 37.6927 64.5373 37.5365 64.7355 37.4207C64.9285 37.2996 65.2062 37.2405 65.5689 37.2434C65.8836 37.246 66.2248 37.2647 66.5925 37.2997C66.9549 37.3346 67.3012 37.388 67.6313 37.46C67.9561 37.5266 68.2301 37.6168 68.4533 37.7306C68.719 37.8554 68.8938 38.0168 68.9776 38.2148C69.0668 38.4129 69.1104 38.6426 69.1084 38.9039C69.1072 39.0586 69.0926 39.2238 69.0646 39.3996C69.042 39.5701 69.0168 39.7192 68.9892 39.847L68.3164 39.9456C68.3546 39.8339 68.3875 39.7168 68.4151 39.5944C68.4374 39.4719 68.4569 39.3547 68.4738 39.2428C68.4853 39.1309 68.4913 39.0403 68.4918 38.971C68.493 38.8216 68.47 38.6881 68.4229 38.5704C68.3704 38.4526 68.2566 38.3504 68.0812 38.2636C67.9005 38.1769 67.6744 38.1057 67.4028 38.0502C67.1313 37.9893 66.8409 37.9443 66.5318 37.9152C66.2227 37.886 65.9241 37.8703 65.6361 37.868C65.3908 37.866 65.2066 37.8992 65.0834 37.9676C64.9602 38.0359 64.8768 38.1339 64.8331 38.2616C64.7895 38.3892 64.767 38.5384 64.7657 38.709C64.7647 38.8424 64.774 39.0238 64.7936 39.2533C64.8078 39.4827 64.8273 39.7282 64.852 39.9898C64.8713 40.2513 64.8935 40.4941 64.9184 40.7183C64.9434 40.9372 64.9608 41.108 64.9705 41.2308C64.9805 41.3268 64.9956 41.447 65.0158 41.5911C65.0307 41.7299 65.0458 41.85 65.061 41.9515L64.3725 42.018ZM62.4242 36.2741C62.5154 36.2055 62.6279 36.1344 62.7618 36.0608C62.8904 35.9819 63.0244 35.9029 63.1636 35.8241C63.2976 35.7451 63.4181 35.6794 63.5251 35.627L63.7138 36.0685C63.6068 36.1156 63.4863 36.176 63.3524 36.2496C63.2185 36.3232 63.0846 36.3994 62.9507 36.4784C62.8167 36.5573 62.6988 36.6337 62.5969 36.7075L62.4242 36.2741ZM62.1029 35.3915C62.2048 35.323 62.3227 35.2466 62.4567 35.1624C62.5906 35.0781 62.7246 34.9965 62.8585 34.9176C62.9871 34.8386 63.1023 34.7755 63.204 34.7284L63.3927 35.1619C63.216 35.2458 63.0259 35.3483 62.8223 35.4693C62.6134 35.5903 62.4338 35.7062 62.2837 35.817L62.1029 35.3915Z" fill="#565050"/>
<path d="M63.5903 27.0378C63.6498 27.1279 63.7068 27.2233 63.7611 27.324C63.8154 27.4248 63.8725 27.5336 63.9323 27.6503C64.0083 27.7828 64.0953 27.9472 64.1932 28.1436C64.2912 28.3399 64.3999 28.5494 64.5195 28.7722C64.639 28.995 64.7639 29.2177 64.8941 29.4403C65.0243 29.663 65.1544 29.8723 65.2844 30.0683C65.5281 30.4391 65.7843 30.7297 66.053 30.9403C66.3218 31.1455 66.6081 31.2465 66.9121 31.2433C67.2427 31.2398 67.5052 31.0798 67.6994 30.763C67.8882 30.4411 67.9795 29.9654 67.9732 29.3361C67.9703 29.0428 67.9567 28.7389 67.9322 28.4245C67.9024 28.1101 67.8648 27.8092 67.8193 27.5216C67.7737 27.2287 67.7259 26.9812 67.6759 26.7791L68.3878 26.7716C68.4271 26.9686 68.4615 27.2029 68.4908 27.4746C68.5255 27.7409 68.5523 28.0286 68.5714 28.3378C68.5958 28.6469 68.6096 28.9668 68.6129 29.2974C68.6166 29.6761 68.5881 30.023 68.5272 30.3384C68.4717 30.6536 68.3811 30.9293 68.2554 31.1653C68.1297 31.3959 67.9634 31.5763 67.7567 31.7065C67.5447 31.8367 67.2893 31.9034 66.9907 31.9065C66.6974 31.9096 66.4274 31.8511 66.1809 31.731C65.929 31.6109 65.69 31.4374 65.4637 31.2105C65.2374 30.9835 65.0188 30.7137 64.8076 30.4013C64.667 30.2001 64.5315 29.9855 64.4012 29.7575C64.2656 29.5242 64.1353 29.2962 64.0104 29.0735C63.8856 28.8508 63.7715 28.644 63.6683 28.4531C63.565 28.2568 63.478 28.0924 63.4074 27.9598C63.3369 27.8485 63.2746 27.7478 63.2204 27.6577C63.1608 27.5677 63.0959 27.4803 63.0258 27.3957L63.5903 27.0378ZM62.1824 31.1008C62.5225 30.9745 62.8546 30.8404 63.1785 30.6983C63.5024 30.5509 63.805 30.4038 64.0862 30.2568C64.3673 30.1045 64.6167 29.9659 64.8341 29.841L65.1675 30.3895C64.9502 30.5251 64.693 30.6691 64.3958 30.8216C64.0986 30.974 63.7828 31.1267 63.4483 31.2795C63.1138 31.4324 62.7819 31.5825 62.4527 31.73L62.1824 31.1008Z" fill="#565050"/>
<path d="M63.1235 20.0288C62.9094 20.0946 62.7372 20.2089 62.6069 20.3716C62.4699 20.5309 62.3847 20.7244 62.3511 20.9524C62.3109 21.1767 62.3288 21.4195 62.4049 21.6806C62.4913 21.9776 62.5956 22.2496 62.7175 22.4967C62.8394 22.7437 62.9623 22.9654 63.0861 23.1617C63.2084 23.3528 63.3123 23.5189 63.3979 23.66C63.4678 23.7668 63.5396 23.8703 63.6132 23.9704C63.6853 24.0654 63.7552 24.1527 63.8228 24.2323L63.1698 24.6506C63.1283 24.5462 63.0794 24.4357 63.0233 24.3191C62.9656 24.1973 62.9076 24.084 62.8493 23.9792C62.7548 23.8074 62.6445 23.6098 62.5184 23.3863C62.3907 23.1578 62.2629 22.9097 62.135 22.6422C62.0056 22.3696 61.8984 22.0873 61.8134 21.7954C61.7076 21.4319 61.6791 21.0863 61.7282 20.7588C61.7772 20.4313 61.9053 20.1465 62.1125 19.9043C62.3131 19.6586 62.5944 19.4801 62.9563 19.3688C63.3744 19.2404 63.7719 19.213 64.1489 19.2869C64.5207 19.3623 64.8727 19.5219 65.2048 19.7657C65.5302 20.006 65.8339 20.3144 66.1157 20.6908C66.3975 21.0673 66.6464 21.4929 66.8624 21.9676L66.3819 22.4919C66.1916 22.0483 65.9786 21.6507 65.743 21.2991C65.5022 20.9491 65.2465 20.6623 64.9758 20.4386C64.7037 20.2098 64.4127 20.0594 64.1029 19.9872C63.7915 19.9099 63.4651 19.9238 63.1235 20.0288ZM60.6218 24.3123C60.6066 24.0882 60.5768 23.824 60.5326 23.5196C60.4869 23.2101 60.4364 22.8936 60.3811 22.5703C60.3193 22.2434 60.2583 21.9386 60.1981 21.6558C60.1365 21.3679 60.0781 21.1292 60.0229 20.9398L60.6386 20.851C60.6859 21.0708 60.7412 21.3272 60.8043 21.6202C60.8608 21.9096 60.9185 22.2127 60.9774 22.5293C61.0297 22.8424 61.0798 23.1478 61.1276 23.4455C61.1688 23.7397 61.2037 24.0024 61.2321 24.2335L60.6218 24.3123Z" fill="#565050"/>
<path d="M54.3815 14.9318C54.202 14.7023 53.9905 14.4562 53.7471 14.1936C53.4998 13.9272 53.2338 13.6535 52.9491 13.3726C52.7668 13.1928 52.581 13.0169 52.3914 12.8449C52.1981 12.6692 52.0125 12.5047 51.8345 12.3516C51.6491 12.1986 51.4826 12.0606 51.335 11.9374L51.783 11.4582C51.9193 11.5778 52.0784 11.716 52.2602 11.8728C52.4419 12.0297 52.6314 12.1979 52.8285 12.3774C53.0218 12.5531 53.2077 12.729 53.3861 12.9051C53.6709 13.186 53.9312 13.454 54.167 13.7092C54.3993 13.9682 54.6201 14.2161 54.8295 14.4526L54.3815 14.9318ZM56.3555 12.352C56.5027 12.2726 56.6387 12.1896 56.7635 12.103C56.8844 12.0126 56.9959 11.9129 57.0979 11.8038C57.3055 11.5817 57.3629 11.2901 57.27 10.9288C57.1771 10.5676 56.9029 10.1622 56.4473 9.71273C56.1853 9.45428 55.9237 9.21493 55.6625 8.99469C55.4013 8.77445 55.1537 8.58259 54.9197 8.41914C54.6819 8.25193 54.4691 8.12054 54.2811 8.02496L54.7452 7.51676C54.9183 7.61265 55.1201 7.74427 55.3504 7.91162C55.577 8.07523 55.819 8.2691 56.0766 8.49324C56.3378 8.71348 56.6051 8.95845 56.8784 9.22814C57.2619 9.60645 57.5502 9.97331 57.7435 10.3287C57.9367 10.6841 58.0271 11.0167 58.0148 11.3266C58.0024 11.6365 57.8815 11.9141 57.6521 12.1595C57.51 12.3115 57.362 12.4425 57.2079 12.5527C57.0539 12.6628 56.9089 12.7632 56.7731 12.8539L56.3555 12.352Z" fill="#565050"/>
<path d="M46.3226 9.68976C46.3688 9.66412 46.4287 9.62719 46.5022 9.57896C46.5688 9.53338 46.6388 9.48647 46.7124 9.43824C46.8482 9.3542 47.0192 9.23648 47.2253 9.08508C47.4244 8.93632 47.6407 8.77495 47.8742 8.60096C48.1056 8.43185 48.3334 8.26407 48.5578 8.09761C48.7773 7.92891 48.9726 7.77547 49.1438 7.63729C48.8989 7.71786 48.6695 7.74978 48.4556 7.73307C48.2347 7.719 48.0371 7.67165 47.8629 7.59103C47.6208 7.47905 47.4556 7.31153 47.3671 7.08844C47.2737 6.86312 47.2854 6.60413 47.4021 6.31146C47.4615 6.16269 47.5276 6.00526 47.6004 5.83919C47.6662 5.67576 47.7334 5.5159 47.8019 5.35959C47.8683 5.20817 47.9234 5.06917 47.9673 4.94257C48.0341 4.75024 48.0301 4.58681 47.9552 4.45226C47.8781 4.3226 47.7621 4.22194 47.6072 4.15028C47.4088 4.05846 47.2061 4.02933 46.9993 4.06288C46.7855 4.09909 46.5784 4.17956 46.3782 4.3043C46.1731 4.4268 45.9834 4.57403 45.809 4.74599C45.6346 4.91795 45.4815 5.08799 45.3496 5.25609L45.0438 4.63873C45.341 4.3062 45.6479 4.03106 45.9646 3.81332C46.2792 3.60047 46.6047 3.46903 46.941 3.419C47.2725 3.36674 47.6149 3.42235 47.9683 3.58583C48.2248 3.70452 48.4091 3.84854 48.5212 4.0179C48.6305 4.18012 48.688 4.34774 48.6937 4.52074C48.6945 4.69151 48.6676 4.8524 48.6131 5.00341C48.5558 5.1473 48.4932 5.3034 48.4252 5.47172C48.3524 5.63779 48.2807 5.80142 48.21 5.96261C48.1393 6.1238 48.0799 6.27257 48.0318 6.40893C47.9708 6.5746 47.967 6.72267 48.0204 6.85314C48.0669 6.98626 48.1724 7.09089 48.337 7.16703C48.5306 7.25661 48.745 7.28533 48.9804 7.2532C49.2087 7.22372 49.4375 7.15333 49.6668 7.04203C49.8913 6.92848 50.0923 6.7953 50.2699 6.64247C50.3703 6.55964 50.4875 6.4582 50.6217 6.33813C50.751 6.21582 50.88 6.08751 51.0088 5.9532C51.1376 5.81888 51.2572 5.6921 51.3677 5.57284C51.4734 5.45135 51.5586 5.34979 51.6235 5.26819L52.1516 5.77688C51.9552 5.98568 51.7173 6.21635 51.4377 6.4689C51.1581 6.72145 50.86 6.98305 50.5434 7.25371C50.2247 7.52925 49.9032 7.79767 49.579 8.05896C49.2527 8.32514 48.9458 8.57382 48.6581 8.805C48.3634 9.03882 48.1029 9.2414 47.8764 9.41275C47.6477 9.58898 47.4762 9.72115 47.3619 9.80926C47.2798 9.87703 47.1977 9.9448 47.1156 10.0126C47.0265 10.083 46.9366 10.1618 46.8459 10.2491L46.3226 9.68976Z" fill="#565050"/>
<rect width="18" height="23" transform="translate(26 25)" fill="#EFEFEF"/>
<path d="M36.004 38.0724L37.243 36.8333C37.6173 36.4591 38.2241 36.4591 38.5983 36.8333C38.9726 37.2076 38.9726 37.8144 38.5983 38.1886L36.004 40.7829V42.9208C38.3602 42.4848 40.1414 40.4717 40.1414 38.054C40.1414 35.3179 35.0457 29.2497 35.0457 29.2497C35.0457 29.2497 29.9499 35.3179 29.9499 38.054C29.9499 40.4717 31.7312 42.4848 34.0873 42.9208V35.5929C34.0873 35.0644 34.5127 34.636 35.0457 34.636C35.5749 34.636 36.004 35.0648 36.004 35.5929V38.0724ZM36.004 45.0629V46.1374C36.004 46.6659 35.5786 47.0943 35.0457 47.0943C34.5164 47.0943 34.0873 46.6655 34.0873 46.1374V45.0629C30.5667 44.6041 27.8333 41.6522 27.8333 38.054C27.8333 36.6731 28.4727 35.1147 29.598 33.2244C29.9429 32.6451 30.3298 32.045 30.7517 31.4293C31.3362 30.5765 31.9588 29.7347 32.5813 28.9377C32.7992 28.6587 33.002 28.4047 33.1848 28.18C33.2964 28.0428 33.378 27.9441 33.4247 27.8885L35.0457 25.9583L36.6666 27.8885C36.7133 27.9441 36.7949 28.0428 36.9066 28.18C37.0893 28.4047 37.2921 28.6587 37.51 28.9377C38.1325 29.7347 38.7552 30.5765 39.3396 31.4293C39.7615 32.045 40.1485 32.6451 40.4933 33.2244C41.6187 35.1147 42.2581 36.6731 42.2581 38.054C42.2581 41.6522 39.5246 44.6041 36.004 45.0629Z" fill="#D89FA7"/>
</svg>
